<svg width="240" height="320" viewBox="15 55 50 20" fill="none" xmlns="http://www.w3.org/2000/svg">
  <path d="M10,25 V 110 H 90 V 25 H 85 V 15 L50,-10 L15,15 V 25 Z" fill="#000e20" stroke-width="6" stroke="green"/>
  <path d="M 10 25 V 110 H 90 V 25 H 85 V 15 L50,-10 L15,15 V 25 Z" fill="transparent" stroke="black"/>
  <path
  d="
   M 20 60
   L 30 40
   H 50
   L 60 60
   L 50 80
   H 30
   Z
  "
    stroke="none" fill="transparent"/>
  <path
  d="
   M 25 50
   L 35 45
   L 45 50
   v 10
   L 55 70
   v 10
   L 45 85
   L 35 80
   v -10
   L 25, 60
   Z
  "
    stroke="orange" 
    fill="none"/>
    <path
  d="
   M 25 50
   L 35 45
   L 45 50
   v 10
   L 55 70
   v 10
   L 45 85
   L 35 80
   v -10
   L 25, 60
   Z
  "
    stroke="orange" 
      fill="none"
      transform-box="fill-box"
      transform-origin="center"
      transform="rotate(115,15, 55)"
      />

      <path
  d="
   M 25 50
   L 35 45
   L 45 50
   v 10
   L 55 70
   v 10
   L 45 85
   L 35 80
   v -10
   L 25, 60
   Z
  "
    stroke="orange" 
        fill="none"
      transform-box="fill-box"
      transform-origin="center"
      transform="scale(-1,1) translate(-30, 0)"
      />
  
</svg>
